<svg width="182" height="58" viewBox="0 0 182 58" fill="none" xmlns="http://www.w3.org/2000/svg">
<path d="M1.69617 10.1262L1.69612 10.1262L1.70535 10.1209C2.27133 9.79727 3.01682 9.71378 3.68719 9.79144C4.35236 9.86851 5.05687 10.1178 5.51008 10.5857C5.79555 10.872 5.98347 11.1604 6.0816 11.6472C6.16944 12.083 6.18669 12.6875 6.18669 13.6042H6.18673L6.18666 13.6102L6.18367 13.8585C6.57902 13.269 7.07992 12.6689 7.60585 12.1328C8.30032 11.4249 9.07267 10.7935 9.74749 10.4419L9.74805 10.4416C10.4864 10.058 11.4589 9.83124 12.4297 9.75168C13.4021 9.67198 14.421 9.73596 15.2651 9.9708C16.2477 10.232 17.2865 10.9529 18.1624 11.8393C19.0449 12.7322 19.8135 13.8447 20.2243 14.954C21.3897 18.0557 21.2059 21.7337 19.6933 24.6818C19.279 25.4965 18.5093 26.4594 17.6622 27.3232C16.8123 28.1899 15.8437 28.9982 15.0041 29.4859L15.0042 29.486L14.9959 29.4906L14.5207 29.7548C15.8586 30.4086 16.7124 31.7422 17.038 33.2214C17.3811 34.7799 17.1565 36.565 16.2463 38.0554L16.2464 38.0554L16.241 38.0638C15.9322 38.5474 15.624 38.9367 15.2298 39.2846C14.8382 39.6301 14.3797 39.9187 13.7883 40.2213C13.0949 40.581 12.6144 40.8011 11.9754 40.9167C11.3605 41.028 10.6136 41.0391 9.39446 41.0391C8.19637 41.0391 7.449 41.0212 6.87058 40.9242C6.26184 40.8221 5.85001 40.6343 5.31865 40.3419L5.31865 40.3419L5.31637 40.3406C2.86719 38.9761 1.53985 36.1506 1.00052 31.735C0.830644 30.4858 0.66595 25.676 0.574308 21.1007C0.528238 18.8007 0.500402 16.5444 0.500004 14.8013C0.499806 13.9303 0.506455 13.1844 0.521259 12.6243C0.528651 12.3447 0.538171 12.1074 0.550221 11.9223C0.560756 11.7605 0.575276 11.5965 0.603335 11.4821C0.668084 11.1922 0.845563 10.9181 1.02599 10.705C1.21532 10.4815 1.45293 10.2723 1.69617 10.1262ZM13.5704 15.3879L13.5685 15.3869C12.45 14.7588 11.3156 14.7063 10.3038 15.1268C9.28163 15.5515 8.33381 16.4815 7.66289 17.908L7.66191 17.9101C6.69035 19.9515 6.3125 22.0292 6.13551 26.2021C5.99666 29.9554 6.22046 32.8693 6.7691 34.8841C7.32657 36.9315 8.16196 37.8668 9.1039 38.0399L9.10572 38.0402C10.0606 38.2194 11.011 37.6761 11.6134 36.7265C12.2124 35.7822 12.3815 34.5571 11.8717 33.5539C11.5609 32.9752 10.8047 32.5266 10.004 32.5266C9.54149 32.5266 8.98978 32.3923 8.53083 32.2175C8.29736 32.1286 8.07211 32.0233 7.88099 31.9077C7.70272 31.7999 7.5039 31.6536 7.37843 31.4653L7.37841 31.4653L7.37524 31.4605C7.13014 31.0832 7.06642 30.6085 7.11358 30.1917C7.15992 29.7822 7.32333 29.341 7.6402 29.034C7.73867 28.9288 7.8641 28.8419 7.97771 28.7735C8.10509 28.6967 8.25168 28.623 8.40451 28.5552C8.70755 28.4209 9.06193 28.2979 9.39287 28.2146C9.97286 28.0507 11.0869 27.5434 11.8313 27.0389L11.8312 27.0387L11.8422 27.0316C13.4539 26.0001 14.62 24.3031 15.1719 22.4385C15.7235 20.5745 15.6481 18.5896 14.8421 16.9847C14.6402 16.6053 14.4046 16.2469 14.1707 15.9579C13.9283 15.6585 13.716 15.4689 13.5704 15.3879Z" fill="#84CC16" stroke="#434A42"/>
<path d="M103.877 31.7184C102.522 31.8917 101.213 31.8532 99.9526 31.5998L94.6848 48.0713C94.5087 48.6217 94.1503 49.0392 93.6345 49.305C93.1187 49.5708 92.5713 49.62 92.0222 49.4433C91.4475 49.2583 91.0006 48.9112 90.7339 48.3914C90.4758 47.8884 90.4373 47.3565 90.6356 46.8319L95.9947 30.3101C94.6959 29.6797 93.5426 28.887 92.5378 27.9312C91.4311 26.8784 90.5239 25.6621 89.8171 24.2844C88.0768 20.8929 87.778 17.3693 88.9243 13.7432C90.0711 10.116 92.3466 7.41891 95.7307 5.67515C99.1443 3.9162 102.68 3.61779 106.307 4.78513C109.932 5.95202 112.627 8.24151 114.368 11.634C116.108 15.0265 116.399 18.5548 115.237 22.1887C114.074 25.8254 111.758 28.5405 108.315 30.3147C106.88 31.0542 105.4 31.5235 103.877 31.7184ZM99.1172 27.2117C101.658 28.0417 104.101 27.8455 106.478 26.6208C108.888 25.3793 110.491 23.4886 111.31 20.927C112.13 18.3636 111.929 15.905 110.706 13.5208C109.482 11.1367 107.604 9.54248 105.046 8.71937C102.491 7.89682 100.023 8.10377 97.6139 9.34526C95.2371 10.57 93.6563 12.4474 92.8518 15.0013C92.0468 17.5566 92.2549 20.0122 93.4788 22.3976C94.7028 24.783 96.5748 26.3811 99.1172 27.2117Z" fill="#434A42" stroke="#434A42"/>
<path d="M99.3944 11.4432C98.7341 12.1801 98.7849 14.3145 99.4452 15.2293C100.156 16.1695 101.782 16.1949 102.239 15.2547C102.772 14.2129 102.67 12.053 102.061 11.4432C101.375 10.7571 100.004 10.7825 99.3944 11.4432Z" fill="#84CC16"/>
<path d="M104.146 11.7002C102.978 12.183 102.444 15.0798 103.333 16.147C103.714 16.6044 104.679 16.6298 105.416 16.2487C105.873 15.9946 105.898 16.02 105.72 16.579C105.39 17.4684 105.492 18.8405 105.898 19.0946C106.558 19.552 107.981 19.1454 108.742 18.3069C110.241 16.6298 109.098 14.1904 107.168 14.9273C106.431 15.1814 106.431 15.1814 106.66 14.5716C107.396 12.6404 105.923 10.9633 104.146 11.7002Z" fill="#84CC16"/>
<path d="M130.305 11.4682L130.305 11.4682L130.312 11.4665C131.628 11.1479 133.145 11.2772 134.532 11.7208C135.917 12.164 137.224 12.9377 138.098 13.9647C139.497 15.5845 140.022 17.3941 140.022 20.2108L140.022 20.2128C139.996 26.6692 135.797 31.8819 129.517 33.1765C128.672 33.3586 128.01 33.4483 127.287 33.4381C126.57 33.4279 125.812 33.3196 124.777 33.128L124.777 33.1282L124.764 33.1253L124.657 33.1025V35.8381V39.1668V39.5001L124.35 39.6283L123.436 40.0095L123.436 40.0095L123.433 40.0107C122.196 40.517 120.757 40.3549 120.063 39.3489L120.063 39.349L120.059 39.3424C119.936 39.1585 119.863 38.8938 119.808 38.6264C119.748 38.3372 119.695 37.9636 119.645 37.5059C119.545 36.5891 119.455 35.2944 119.366 33.5779C119.188 30.3501 119.099 25.3534 119.096 21.0878C119.094 18.954 119.114 16.9985 119.155 15.5347C119.176 14.8036 119.202 14.1903 119.233 13.7371C119.249 13.5113 119.267 13.3185 119.287 13.168C119.297 13.0931 119.308 13.0219 119.322 12.9591C119.333 12.9075 119.354 12.8203 119.397 12.7382L119.396 12.7382L119.401 12.7308C119.547 12.4603 119.806 12.2585 120.056 12.1124C120.318 11.9597 120.629 11.8349 120.949 11.7421C121.575 11.5607 122.328 11.477 122.925 11.6179C123.694 11.7945 124.325 12.0062 124.715 12.5107C125.1 13.0097 125.165 13.6888 125.165 14.5188V14.7674L125.462 14.4382L125.463 14.4374C126.745 13.0215 128.53 11.9257 130.305 11.4682ZM132.17 15.3114L132.17 15.3116L132.157 15.306C131.947 15.2126 131.727 15.1316 131.544 15.0781C131.452 15.0513 131.377 15.0334 131.321 15.0237C131.291 15.0185 131.274 15.017 131.267 15.0164L131.258 15.0172C129.591 15.1543 128.069 16.1559 126.902 17.8487C125.735 19.5425 124.944 21.9035 124.758 24.6657L124.758 24.6657L124.758 24.6708C124.557 27.2488 124.925 28.5799 125.779 29.4354C126.342 29.9869 127.167 30.1579 128.176 29.8773C129.192 29.5945 130.347 28.8581 131.433 27.6743C133.343 25.5794 134.38 22.7895 134.486 20.351C134.594 17.8816 133.757 15.9661 132.17 15.3114Z" fill="#84CC16" stroke="#434A42"/>
<path d="M95.9186 13.7819C94.4457 14.9761 95.7916 18.0508 97.7725 18.0508C98.8645 18.0508 99.0169 17.7967 99.0169 15.9925C99.0169 14.9761 98.8899 14.595 98.382 14.1122C97.7217 13.4261 96.5789 13.2736 95.9186 13.7819Z" fill="#84CC16"/>
<path d="M156.772 15.0505L156.772 15.0503L156.784 15.0454C157.243 14.8646 157.658 14.7656 158.113 14.7856C158.56 14.8052 159.003 14.9378 159.519 15.1497L159.519 15.1497L159.525 15.1523C160.256 15.4638 160.816 15.8489 161.105 16.5076C161.378 17.1324 161.362 17.9105 161.221 18.8841C161.097 19.7789 160.972 21.3809 160.972 22.4222V23.9042H163.113C163.862 23.9042 164.461 23.9135 164.93 23.9541C165.389 23.9938 165.788 24.0672 166.097 24.2344C166.446 24.4233 166.646 24.7114 166.732 25.0712C166.807 25.3891 166.792 25.7616 166.761 26.1468C166.761 26.147 166.761 26.1473 166.761 26.1475L166.685 27.1116L166.65 27.5481L166.213 27.5716L163.851 27.6986L163.851 27.6986C162.878 27.7499 162.31 27.7996 161.954 27.8782C161.626 27.9506 161.563 28.0287 161.519 28.0923L161.514 28.1001L161.508 28.1077C161.366 28.299 161.229 28.7007 161.148 29.3065C161.07 29.8907 161.053 30.5942 161.095 31.3223C161.137 32.0494 161.236 32.7878 161.384 33.4408C161.533 34.0985 161.725 34.6375 161.938 34.9907C162.405 35.7215 163.069 35.9352 163.464 35.7801L163.464 35.78L163.468 35.7782C163.468 35.7782 163.468 35.7782 163.469 35.7781C163.471 35.777 163.496 35.7652 163.543 35.7268C163.591 35.6874 163.649 35.6311 163.714 35.5569C163.844 35.4081 163.984 35.2098 164.113 34.9892C164.242 34.7691 164.353 34.5382 164.431 34.3282C164.512 34.1096 164.543 33.9485 164.543 33.8568C164.543 33.2642 164.668 32.7251 165.021 32.334C165.383 31.9323 165.899 31.7814 166.465 31.7814C167.179 31.7814 167.8 31.8718 168.238 32.2153C168.711 32.5873 168.845 33.148 168.845 33.7552L168.845 33.7591C168.831 35.559 167.835 37.1683 166.449 38.2137C165.063 39.2592 163.228 39.7845 161.469 39.3479L161.469 39.348L161.461 39.3458C160.594 39.1145 159.667 38.5263 158.877 37.8019C158.084 37.0749 157.381 36.1678 156.99 35.2477C155.906 32.7334 155.629 30.48 155.477 23.653L155.477 23.6511C155.414 20.2237 155.406 18.2566 155.547 17.0953C155.618 16.5133 155.733 16.07 155.94 15.7331C156.163 15.3711 156.459 15.1833 156.772 15.0505Z" fill="#84CC16" stroke="#434A42"/>
<path d="M99.3954 17.4634C96.7035 19.6741 96.4495 19.9282 96.2971 20.8938C95.9416 23.2061 97.0336 24.0446 100.005 23.7397C101.275 23.6127 101.935 23.6889 102.671 23.9938C103.205 24.2225 104.195 24.4004 104.881 24.4004C106.481 24.4004 107.141 23.816 107.141 22.3422C107.141 21.0971 106.862 20.538 105.592 19.1405C105.033 18.5306 104.602 17.9462 104.602 17.7937C104.602 17.2601 102.951 16.5232 101.757 16.5232C100.767 16.5232 100.386 16.6757 99.3954 17.4634Z" fill="#84CC16"/>
<path d="M42.8994 19.3167L42.9011 19.3163C45.9777 18.5807 49.2291 20.0151 50.4816 22.7969C50.7834 23.4516 50.9848 23.9893 50.9805 24.4729C50.9757 25.0171 50.7178 25.4085 50.3548 25.7717C49.9868 26.1399 49.3868 26.334 48.8605 26.4003C48.3388 26.466 47.7048 26.4291 47.2645 26.1419L47.2557 26.1361L47.2471 26.1299C47.1212 26.04 47.0249 25.9061 46.9605 25.8067C46.8863 25.6921 46.8117 25.5543 46.7404 25.4046C46.5983 25.1063 46.4557 24.7322 46.3467 24.3387C46.1995 23.8611 46.0709 23.5626 45.9344 23.3577C45.8077 23.1675 45.6664 23.0464 45.4602 22.9432L45.4602 22.9432L45.4541 22.9401C44.8825 22.6443 44.3248 22.7072 43.8796 23.0152C43.4227 23.3314 43.045 23.9376 42.9559 24.7845L42.956 24.7845L42.9552 24.7909C42.8526 25.6575 42.9773 26.2376 43.458 26.8362C43.9778 27.4835 44.9301 28.1737 46.5961 29.1536C48.1754 30.068 49.3152 31.1047 49.9278 32.2496C50.5514 33.4151 50.6087 34.6583 50.0825 35.8999C49.8162 36.5651 49.5284 37.0816 49.124 37.5193C48.7199 37.9567 48.2257 38.2869 47.5911 38.6176L47.5897 38.6183C45.162 39.8738 41.9993 39.5145 40.2003 37.7145C39.5942 37.108 39.1799 36.4963 39.1139 35.8663C39.0422 35.1827 39.3892 34.6306 39.9402 34.1983C40.2033 33.9914 40.4642 33.7982 40.7269 33.687C41.0215 33.5623 41.3308 33.5347 41.6581 33.6613C41.9488 33.7737 42.2138 33.9939 42.4786 34.2601C42.7496 34.5326 43.0658 34.9011 43.4519 35.3635L43.4537 35.3656C43.8049 35.791 44.3194 35.9108 44.7411 35.803C45.155 35.6973 45.4379 35.3927 45.4379 34.9471C45.4379 34.8078 45.3672 34.5779 44.9101 34.1706C44.4575 33.7674 43.7142 33.2679 42.5614 32.5833C40.9284 31.6386 39.8158 30.8562 39.0457 29.9829C38.2598 29.0918 37.8564 28.1363 37.5775 26.9004L37.5774 26.9001C36.8199 23.5317 39.2366 20.206 42.8994 19.3167Z" fill="#84CC16" stroke="#434A42"/>
<path d="M30.2445 37.3956L30.2442 37.3957C28.6344 37.7312 27.1392 37.603 25.8584 37.0179C24.576 36.4322 23.5452 35.4051 22.8396 34.0074C21.7884 31.9568 21.49 29.5094 21.6173 25.1531C21.6677 23.1474 21.7616 21.8463 22.0093 21.0153C22.1368 20.5877 22.3172 20.2393 22.5909 19.9798C22.8675 19.7176 23.1949 19.5883 23.5375 19.5191C24.0726 19.4011 24.6966 19.4128 25.2695 19.5089C25.838 19.6043 26.4114 19.7921 26.8323 20.0709C26.9795 20.163 27.1426 20.2688 27.2745 20.405C27.4257 20.5612 27.5241 20.7428 27.5756 20.9668C27.6225 21.1711 27.6281 21.4018 27.6181 21.6577C27.608 21.9171 27.5797 22.2409 27.5419 22.6442C27.4662 23.5539 27.3144 25.8061 27.2131 27.6059C27.0992 30.1297 27.2339 31.7833 27.6189 32.7925C27.8067 33.2846 28.0422 33.5911 28.3088 33.779C28.5738 33.9657 28.9166 34.0684 29.3803 34.0684C29.631 34.0684 29.8265 34.0248 30.0189 33.9297C30.2203 33.8301 30.4427 33.6621 30.7281 33.3765C31.2241 32.8802 31.5626 32.2503 31.7712 31.138C31.9836 30.0057 32.0547 28.4098 32.0293 26.0105L32.0293 26.0086C32.0168 24.173 32.0153 23.1576 32.0904 22.5601C32.1289 22.2535 32.193 21.9999 32.322 21.785C32.4549 21.5638 32.6287 21.4318 32.7719 21.3295C33.6676 20.6893 34.8887 20.7315 35.7857 21.3762C35.7889 21.3783 35.7921 21.3805 35.7954 21.3827C35.9319 21.4735 36.113 21.5941 36.2507 21.7778C36.4064 21.9856 36.477 22.2264 36.5112 22.5081C36.5737 23.0218 36.5336 23.8893 36.4615 25.4529L36.4572 25.5454L36.4571 25.5477C36.266 29.3214 35.7807 32.0539 34.8095 33.9572C33.8155 35.9052 32.325 36.9602 30.2445 37.3956Z" fill="#84CC16" stroke="#434A42"/>
<path d="M56.8645 38.2541L56.8636 38.2537C56.0511 37.9033 55.2179 37.2804 54.5008 36.5463C53.783 35.8114 53.1544 34.9375 52.7697 34.0586C52.1128 32.5951 51.7754 30.6953 51.7428 28.8622C51.7104 27.0331 51.9802 25.2018 52.5959 23.8871C52.9847 23.0536 53.6376 22.2163 54.3814 21.512C55.1245 20.8083 55.9887 20.2085 56.8236 19.8741C57.7201 19.5099 58.8799 19.3601 59.9952 19.3965C61.108 19.4328 62.2434 19.6568 63.0827 20.0975C64.003 20.5723 64.8408 21.3548 65.4526 22.2139C66.0598 23.0665 66.4858 24.0535 66.5008 24.9541L66.5009 24.9541V24.9624C66.5009 25.2575 66.3439 25.507 66.2041 25.6756C66.0527 25.8584 65.8549 26.0263 65.6459 26.1676C65.2427 26.44 64.6935 26.6821 64.1978 26.6821C63.5464 26.6821 62.9674 26.5877 62.5386 26.2063C62.1138 25.8285 61.9417 25.2618 61.8492 24.6032C61.7609 24.0333 61.4931 23.4436 61.1603 23.0016C60.9945 22.7813 60.8235 22.6123 60.6673 22.5026C60.5064 22.3896 60.395 22.3623 60.3376 22.3623C59.6209 22.3623 58.8799 22.8329 58.2697 23.784C57.6647 24.7269 57.2396 26.0749 57.1545 27.6324L57.1544 27.6338C56.9542 31.1148 57.6422 33.6611 58.9479 35.0363L58.948 35.0363L58.9528 35.0416C59.4306 35.5594 59.9849 35.65 60.4732 35.4631C60.984 35.2677 61.502 34.7337 61.761 33.8476C61.863 33.4714 61.9604 33.1513 62.0717 32.8891C62.1842 32.6243 62.3238 32.3867 62.5269 32.2007C62.9463 31.817 63.4996 31.7806 64.0962 31.7806C64.9087 31.7806 65.6296 31.9478 66.0541 32.4653C66.4908 32.9977 66.4701 33.718 66.2517 34.4553L66.2517 34.4555C65.4867 37.0354 62.7049 38.7266 59.6773 38.7266V38.7267L59.6638 38.7264C59.1704 38.713 58.6275 38.6599 58.137 38.5804C57.6559 38.5023 57.1884 38.393 56.8645 38.2541Z" fill="#84CC16" stroke="#434A42"/>
<path d="M71.5548 19.8724L71.5567 19.8717C74.31 18.7913 77.5977 19.3699 79.5313 21.2771L79.5314 21.277L79.5361 21.2818C81.6725 23.4465 82.6299 26.6527 82.4223 30.6537C82.28 33.4507 81.6438 35.6716 80.4657 37.2399C79.2731 38.8274 77.5641 39.6942 75.4057 39.8428C72.7405 40.0312 70.4765 39.0193 69.062 37.2734C67.6481 35.5282 67.1167 33.0916 67.8284 30.4972C68.0418 29.7055 68.7054 28.8151 69.5519 27.9424L69.5519 27.9424L69.5572 27.9371C70.4148 27.079 71.3291 26.4737 72.3905 26.1116C73.4482 25.7509 74.623 25.6415 75.9886 25.7334L75.9886 25.7334L75.9917 25.7337L77.0422 25.8109L77.0402 25.8016C76.7972 24.6468 76.383 23.6953 75.9022 23.0453C75.412 22.3826 74.914 22.1076 74.5074 22.1076C74.241 22.1076 73.8335 22.2956 73.418 22.6998C73.0173 23.0895 72.6904 23.6042 72.5523 24.1007C72.4709 24.4123 72.3634 24.7346 72.2587 25.0014C72.2062 25.1354 72.1524 25.2604 72.1008 25.366C72.0553 25.4591 71.9947 25.5727 71.9229 25.6599C71.7223 25.9063 71.4369 26.0377 71.1661 26.1033C70.8897 26.1702 70.5851 26.1798 70.2868 26.1483C69.7001 26.0863 69.0469 25.8545 68.5727 25.4458L67.8664 24.8653L67.5895 24.6377L67.7161 24.3024L68.1479 23.1589L68.1478 23.1589L68.1502 23.1528C68.7648 21.5874 69.8405 20.5531 71.5548 19.8724ZM73.2922 36.1554L73.2936 36.1565C73.8826 36.6218 74.524 36.6976 75.1152 36.4749C75.7225 36.246 76.328 35.6797 76.7438 34.7675C77.1405 33.8817 77.2603 32.6519 77.1253 31.5532C77.0583 31.0079 76.9312 30.519 76.761 30.1398C76.5889 29.7561 76.3974 29.5386 76.232 29.4457C76.1404 29.4017 75.9514 29.3438 75.6941 29.297C75.4398 29.2508 75.1589 29.2225 74.9138 29.2225C74.5444 29.2225 74.3246 29.2632 74.1316 29.35C73.9299 29.4407 73.7141 29.6009 73.3849 29.9178C72.5425 30.7627 72.0988 32.006 72.0901 33.2206C72.0813 34.4423 72.5103 35.5422 73.2922 36.1554Z" fill="#84CC16" stroke="#434A42"/>
<path d="M172.736 19.7027L172.738 19.7022C173.561 19.4834 174.18 19.3607 174.815 19.3679C175.45 19.375 176.069 19.5118 176.894 19.757L176.894 19.757L176.899 19.7584C177.968 20.0877 178.729 20.5392 179.552 21.4163C180.644 22.5493 181.234 23.7626 181.125 24.7808C181.068 25.3108 180.82 25.7743 180.381 26.0951C179.953 26.408 179.387 26.5552 178.733 26.5552L178.706 26.5552C178.456 26.5553 178.225 26.5553 178.033 26.5316C177.82 26.5054 177.6 26.4446 177.403 26.283C177.217 26.1307 177.101 25.9279 177.01 25.7264C176.92 25.529 176.828 25.2745 176.72 24.9736L176.713 24.954L176.712 24.9516C176.295 23.7726 175.781 23.2137 175.338 23.0539C174.951 22.9145 174.416 23.0189 173.742 23.7511L173.742 23.7512L173.735 23.7584C173.466 24.0391 173.343 24.2264 173.271 24.4293C173.196 24.6443 173.163 24.9228 173.163 25.42C173.163 26.1117 173.343 26.6585 173.792 27.2053C174.261 27.7759 175.035 28.3622 176.267 29.0789L176.268 29.0798C177.957 30.0708 179.082 30.8774 179.743 31.7827C180.433 32.7277 180.583 33.7277 180.475 34.9912L180.475 34.9912L180.475 34.9941C180.395 35.8775 180.203 36.607 179.801 37.2329C179.398 37.8593 178.815 38.3348 178.036 38.7651C175.653 40.1072 172.473 39.8183 170.525 38.0647L170.525 38.0647L170.523 38.0626C169.913 37.5069 169.492 36.9052 169.383 36.2655C169.268 35.5919 169.514 34.9781 170.024 34.4683C170.28 34.2117 170.56 34.001 170.876 33.8915C171.208 33.7766 171.546 33.7852 171.879 33.9141C172.196 34.0369 172.489 34.2612 172.769 34.5458C173.052 34.8327 173.345 35.2045 173.658 35.6544L173.658 35.6544L173.661 35.6595C174.005 36.1675 174.889 36.2783 175.427 35.7969C175.628 35.6146 175.693 35.4684 175.707 35.3602C175.721 35.253 175.696 35.098 175.546 34.8751C175.229 34.4033 174.476 33.8098 173.163 33.1023C172.079 32.5206 170.569 31.4003 169.75 30.6071L169.75 30.6072L169.744 30.6014C169.169 30.0255 168.768 29.581 168.477 29.1263C168.179 28.6605 168.009 28.2058 167.861 27.6275L167.861 27.6275L167.859 27.6165C167.424 25.7416 167.694 24.074 168.691 22.5774C169.651 21.1235 171.025 20.1646 172.736 19.7027Z" fill="#84CC16" stroke="#434A42"/>
<path d="M153.411 35.69L153.411 35.6901L153.407 35.6988C152.27 38.0578 149.321 39.2597 146.456 38.6651C144.447 38.2574 142.374 36.8331 141.334 35.1904C139.64 32.5204 139.287 29.2078 139.989 26.3484C140.688 23.4956 142.464 21.0041 145.123 20.0935C146.738 19.5284 148.746 19.4459 150.321 19.8807L150.321 19.8807L150.325 19.8819C151.155 20.1192 152.047 20.7652 152.769 21.5069C153.491 22.25 154.118 23.1664 154.352 24.0159L154.353 24.0173C155.012 26.4364 154.274 28.7157 152.69 30.2934C151.111 31.8662 148.709 32.7302 146.039 32.3953C145.679 32.3533 145.438 32.3275 145.27 32.3255C145.271 32.3307 145.272 32.3361 145.273 32.3416C145.309 32.5374 145.389 32.8148 145.512 33.2299C145.779 34.1207 146.386 34.8295 147.065 35.2112C147.748 35.5954 148.428 35.6167 148.924 35.2922L148.927 35.29C149.028 35.2252 149.2 35.0548 149.391 34.7949C149.575 34.5451 149.744 34.2557 149.853 33.9937L149.853 33.9937L149.854 33.9911C150.156 33.2773 150.581 32.7146 151.16 32.4631C151.77 32.1983 152.414 32.3341 153.003 32.727C153.462 33.0281 153.773 33.4294 153.825 33.9898C153.873 34.499 153.697 35.0642 153.411 35.69ZM145.114 32.3355C145.114 32.3356 145.115 32.3352 145.118 32.3343C145.115 32.335 145.113 32.3355 145.114 32.3355ZM148.201 29.058L148.204 29.0563C149.044 28.5517 149.662 27.3905 149.856 26.149C149.951 25.5399 149.937 24.9496 149.815 24.46C149.693 23.9688 149.474 23.6163 149.189 23.4143C148.665 23.0489 148.066 23.0012 147.48 23.2422C146.881 23.4885 146.276 24.0492 145.835 24.9313C145.039 26.5251 145.15 27.9491 145.659 28.7411C145.91 29.1304 146.254 29.3699 146.654 29.4439C147.058 29.5186 147.581 29.4356 148.201 29.058Z" fill="#84CC16" stroke="#434A42"/>
<path d="M111.49 31.8041L111.49 31.8041L111.492 31.8033C112.042 31.6371 112.475 31.5291 112.813 31.4953C113.137 31.4629 113.491 31.4859 113.764 31.7226C113.838 31.784 113.93 31.865 114.001 31.9633C114.082 32.0749 114.163 32.2464 114.132 32.4605C114.105 32.6537 113.997 32.7919 113.919 32.875C113.838 32.9618 113.736 33.0424 113.635 33.1169L113.635 33.117L113.626 33.1234C113.462 33.2381 113.268 33.3382 113.085 33.4106C112.915 33.4779 112.698 33.5442 112.501 33.5442C112.506 33.5442 112.505 33.5442 112.498 33.5454C112.484 33.5478 112.443 33.555 112.365 33.5761C112.264 33.6032 112.135 33.6446 111.984 33.6988C111.684 33.8071 111.319 33.9591 110.966 34.1296L110.966 34.1297L110.958 34.1336C110.557 34.3182 110.232 34.4627 109.973 34.566C109.722 34.6658 109.495 34.7425 109.302 34.7688C109.113 34.7945 108.804 34.7896 108.591 34.5257C108.424 34.3176 108.42 34.0561 108.42 33.9335C108.42 33.6397 108.562 33.3934 108.725 33.2069C108.891 33.0177 109.115 32.8464 109.371 32.6904C109.884 32.3774 110.607 32.0769 111.49 31.8041Z" fill="#84CC16" stroke="#434A42"/>
<path d="M129.036 35.1884C128.92 34.8281 129.027 34.43 129.308 34.1453C129.668 33.7649 130.177 33.7581 130.6 33.8829C131.029 34.0097 131.48 34.2946 131.906 34.6798C132.087 34.8408 132.236 34.9807 132.35 35.1024C132.456 35.2152 132.57 35.351 132.635 35.5028C132.67 35.5852 132.702 35.6959 132.692 35.8244C132.683 35.9611 132.63 36.0802 132.553 36.1742C132.428 36.3288 132.251 36.3997 132.154 36.4346C131.899 36.5336 131.617 36.5158 131.388 36.4635C131.145 36.4079 130.895 36.2992 130.678 36.1488L130.67 36.1434L130.663 36.1377C130.552 36.0547 130.402 35.9733 130.251 35.9135C130.091 35.8497 129.981 35.8312 129.947 35.8312C129.507 35.8312 129.158 35.569 129.036 35.1884Z" fill="#84CC16" stroke="#434A42"/>
<path d="M101.074 37.8633C100.929 37.8633 100.766 37.8362 100.616 37.7473C100.456 37.6528 100.347 37.5088 100.293 37.3438C100.198 37.0506 100.293 36.7508 100.389 36.5432C100.597 36.0947 101.038 35.5945 101.596 35.2031C102.151 34.7997 102.605 34.517 102.976 34.4042C103.171 34.3451 103.395 34.3159 103.618 34.386C103.851 34.4589 104.009 34.615 104.113 34.784C104.233 34.9718 104.199 35.1638 104.179 35.2432C104.155 35.3382 104.112 35.42 104.077 35.4782C104.006 35.5988 103.903 35.7274 103.796 35.8497C103.576 36.1 103.269 36.3965 102.951 36.6773C102.632 36.9589 102.288 37.2366 101.988 37.447C101.839 37.5515 101.692 37.6459 101.559 37.7163C101.492 37.7514 101.421 37.785 101.35 37.8107C101.284 37.8342 101.186 37.8633 101.074 37.8633Z" fill="#84CC16" stroke="#434A42"/>
<path d="M138.306 38.1852L138.306 38.1851L138.312 38.1873C138.6 38.2856 138.849 38.3815 139.053 38.4782C139.251 38.5722 139.438 38.6807 139.58 38.8148C139.726 38.9527 139.871 39.1648 139.857 39.4457C139.845 39.7083 139.697 39.9038 139.571 40.0304C139.405 40.1965 139.188 40.245 139.048 40.2628C138.89 40.2827 138.72 40.277 138.555 40.2595C138.224 40.2241 137.842 40.1325 137.484 40.0155C137.127 39.8988 136.768 39.7479 136.488 39.5818C136.349 39.4998 136.21 39.4023 136.098 39.2888C136 39.1887 135.848 38.9991 135.848 38.7367C135.848 38.4884 135.949 38.2481 136.169 38.0861C136.361 37.9447 136.592 37.9024 136.79 37.8941C137.188 37.8775 137.709 37.9906 138.306 38.1852Z" fill="#84CC16" stroke="#434A42"/>
<path d="M144.395 42.3151C144.255 42.4556 144.081 42.5225 143.939 42.5563C143.792 42.5911 143.636 42.6006 143.489 42.5969C143.193 42.5896 142.865 42.5277 142.564 42.4374C142.265 42.3474 141.96 42.2198 141.719 42.0627C141.599 41.9845 141.476 41.8871 141.378 41.7675C141.281 41.6497 141.18 41.4733 141.18 41.2502C141.18 41.1275 141.196 40.9477 141.306 40.7799C141.426 40.5955 141.604 40.5059 141.767 40.466C141.917 40.4293 142.08 40.4276 142.234 40.4366C142.392 40.4458 142.577 40.4687 142.789 40.5008C143.411 40.579 143.955 40.7233 144.294 40.9695C144.471 41.0979 144.662 41.3066 144.687 41.608C144.712 41.9112 144.558 42.1525 144.395 42.3151Z" fill="#84CC16" stroke="#434A42"/>
<path d="M177.691 44.2168C177.543 44.2168 177.394 44.2017 177.258 44.1596C177.122 44.1177 176.966 44.0389 176.851 43.8896C176.586 43.5445 176.747 43.1645 176.868 42.9784C177.003 42.7688 177.217 42.5725 177.461 42.3986C177.711 42.2206 178.019 42.0464 178.373 41.8893C178.732 41.7227 179.038 41.5909 179.295 41.4975C179.546 41.4063 179.782 41.3393 179.993 41.3249C180.205 41.3104 180.484 41.3451 180.691 41.5711C180.881 41.7779 180.908 42.04 180.908 42.2176C180.908 42.4551 180.77 42.6336 180.704 42.7128C180.617 42.8159 180.507 42.9144 180.395 43.004C180.167 43.1852 179.869 43.3757 179.559 43.5475C179.247 43.7202 178.908 43.8823 178.595 44.0028C178.299 44.1167 177.967 44.2168 177.691 44.2168Z" fill="#84CC16" stroke="#434A42"/>
<path d="M169.986 42.7027L169.986 42.7027L169.992 42.7009C170.649 42.5231 171.338 42.4521 171.88 42.4843C172.146 42.5 172.412 42.5425 172.629 42.6322C172.815 42.7092 173.163 42.9121 173.163 43.3359C173.163 43.475 173.151 43.683 173.027 43.8805C172.9 44.0849 172.706 44.1976 172.518 44.2696C172.175 44.4012 171.607 44.4833 170.746 44.5942L170.746 44.5943L170.734 44.5956C170.43 44.6273 170.181 44.6509 169.984 44.6608C169.798 44.6701 169.608 44.6707 169.446 44.6325C169.259 44.5882 169.031 44.4692 168.935 44.1962C168.866 43.998 168.903 43.7965 168.921 43.7012L168.922 43.6931L168.924 43.6849C168.982 43.4251 169.156 43.2113 169.324 43.0646C169.502 42.9086 169.732 42.7753 169.986 42.7027Z" fill="#84CC16" stroke="#434A42"/>
<path d="M148.41 44.4707C147.992 44.4707 147.632 44.4479 147.367 44.3593C147.227 44.3126 147.07 44.2342 146.948 44.0915C146.817 43.9379 146.768 43.7581 146.768 43.5895C146.768 43.421 146.817 43.2412 146.948 43.0876C147.07 42.9449 147.227 42.8665 147.367 42.8198C147.632 42.7312 147.992 42.7084 148.41 42.7084C148.829 42.7084 149.189 42.7312 149.454 42.8198C149.594 42.8665 149.751 42.9449 149.873 43.0876C150.004 43.2412 150.053 43.421 150.053 43.5895C150.053 43.7581 150.004 43.9379 149.873 44.0915C149.751 44.2342 149.594 44.3126 149.454 44.3593C149.189 44.4479 148.829 44.4707 148.41 44.4707Z" fill="#84CC16" stroke="#434A42"/>
<path d="M163.139 44.4707C162.158 44.4707 161.513 44.4528 161.111 44.3881C160.916 44.3568 160.706 44.3049 160.538 44.1873C160.445 44.1222 160.36 44.0338 160.302 43.9175C160.244 43.8024 160.227 43.6876 160.227 43.5895C160.227 43.4915 160.244 43.3767 160.302 43.2616C160.36 43.1453 160.445 43.0569 160.538 42.9918C160.706 42.8742 160.916 42.8223 161.111 42.791C161.513 42.7263 162.158 42.7084 163.139 42.7084C164.12 42.7084 164.765 42.7263 165.168 42.791C165.362 42.8223 165.572 42.8742 165.74 42.9918C165.833 43.0569 165.918 43.1453 165.976 43.2616C166.034 43.3767 166.052 43.4915 166.052 43.5895C166.052 43.6876 166.034 43.8024 165.976 43.9175C165.918 44.0338 165.833 44.1222 165.74 44.1873C165.572 44.3049 165.362 44.3568 165.168 44.3881C164.765 44.4528 164.12 44.4707 163.139 44.4707Z" fill="#84CC16" stroke="#434A42"/>
<path d="M154.758 44.7227C154.435 44.7227 154.128 44.6915 153.886 44.5859C153.758 44.5302 153.624 44.4439 153.522 44.3081C153.416 44.1663 153.369 44.0031 153.369 43.8415C153.369 43.6799 153.416 43.5167 153.522 43.3749C153.624 43.2391 153.758 43.1528 153.886 43.0971C154.128 42.9915 154.435 42.9603 154.758 42.9603C155.081 42.9603 155.388 42.9915 155.63 43.0971C155.758 43.1528 155.892 43.2391 155.994 43.3749C156.1 43.5167 156.147 43.6799 156.147 43.8415C156.147 44.0031 156.1 44.1663 155.994 44.3081C155.892 44.4439 155.758 44.5302 155.63 44.5859C155.388 44.6915 155.081 44.7227 154.758 44.7227Z" fill="#84CC16" stroke="#434A42"/>
<path d="M85.6617 45.2248L85.6617 45.2247L85.6724 45.2196C85.9002 45.1124 86.1555 45.0047 86.3811 44.9226C86.4936 44.8817 86.6045 44.845 86.7042 44.8179C86.7849 44.7959 86.8951 44.7696 87.0029 44.7659C87.1358 44.7565 87.2811 44.7737 87.4197 44.8413C87.5697 44.9145 87.679 45.0309 87.7469 45.1638C87.8723 45.4092 87.8452 45.6778 87.7934 45.8692C87.6872 46.262 87.3767 46.7056 86.9035 46.9156C86.4764 47.1114 86.0789 47.2185 85.7388 47.2427C85.4286 47.2648 85.0507 47.2246 84.7945 46.9805C84.6491 46.8419 84.5612 46.651 84.5645 46.4362C84.5676 46.2367 84.6479 46.0638 84.7429 45.9289C84.9286 45.6651 85.2505 45.4306 85.6617 45.2248Z" fill="#84CC16" stroke="#434A42"/>
<path d="M24.6115 45.2367L24.6115 45.2367L24.614 45.2361C25.25 45.0805 26.4022 45.0185 27.3819 45.0217C27.8797 45.0233 28.3552 45.0418 28.7238 45.0776C28.9062 45.0953 29.0759 45.1185 29.2138 45.1497C29.2817 45.165 29.357 45.1857 29.4279 45.2151C29.4781 45.236 29.6163 45.296 29.7137 45.4352L29.7286 45.4564L29.7412 45.4791C29.8168 45.6153 29.8607 45.7817 29.833 45.9626C29.8059 46.1397 29.718 46.2794 29.6217 46.3813C29.443 46.5704 29.1827 46.6862 28.9376 46.7638C28.4262 46.9258 27.6887 47.0095 26.8406 47.0095C25.7665 47.0095 25.0429 47.1566 24.4551 47.4615L24.4552 47.4615L24.4522 47.463C24.1411 47.6218 23.8834 47.7487 23.6751 47.8361C23.4837 47.9164 23.2662 47.9941 23.0599 47.9941C22.9434 47.9941 22.8034 47.9699 22.6711 47.8846C22.537 47.7982 22.4573 47.679 22.4112 47.5705C22.3325 47.3853 22.3281 47.1685 22.3281 47.0177C22.3281 46.5114 22.6567 46.1315 23.0431 45.8699C23.4353 45.6044 23.9747 45.396 24.6115 45.2367Z" fill="#84CC16" stroke="#434A42"/>
<path d="M69.9717 47.6416L69.9643 47.6406L69.957 47.6394C69.6232 47.5837 69.3166 47.4953 69.0788 47.3675C68.877 47.2591 68.5488 47.0234 68.5488 46.6126C68.5488 46.2079 68.8443 45.9827 69.0933 45.8841C69.3334 45.789 69.637 45.7569 69.9631 45.7569C70.6675 45.7569 71.4027 45.9486 71.9706 46.2273C72.2546 46.3667 72.5188 46.5386 72.7197 46.7391C72.9122 46.9312 73.1042 47.2088 73.1042 47.5528C73.1042 47.7528 73.0644 47.9741 72.9326 48.1626C72.7891 48.3676 72.5748 48.4788 72.3453 48.5014C71.9557 48.5398 71.5576 48.3263 71.2239 48.064C70.9948 47.9254 70.4475 47.7066 69.9717 47.6416Z" fill="#84CC16" stroke="#434A42"/>
<path d="M36.8835 48.6995L36.8835 48.6996L36.8766 48.6979C35.22 48.2803 34.1935 48.008 33.5815 47.7962C33.2811 47.6922 33.0359 47.5883 32.8596 47.4655C32.6676 47.3318 32.4863 47.1218 32.4863 46.8155C32.4863 46.5234 32.6686 46.3357 32.822 46.2408C32.9652 46.1522 33.1308 46.1088 33.2728 46.0844C33.5653 46.0342 33.937 46.0363 34.3215 46.0696C35.0953 46.1366 36.054 46.3429 36.8083 46.658C37.1207 46.7849 37.3859 46.9491 37.5918 47.1287C37.7903 47.3019 37.9648 47.517 38.0446 47.7564C38.0855 47.879 38.1101 48.0355 38.069 48.2017C38.0249 48.3801 37.9147 48.5278 37.7612 48.6237C37.491 48.7924 37.1557 48.764 36.8835 48.6995Z" fill="#84CC16" stroke="#434A42"/>
<path d="M63.2574 46.9521L63.2574 46.952L63.2672 46.9491C64.0005 46.7303 64.6199 46.6073 65.0791 46.6269C65.3069 46.6367 65.5604 46.6834 65.7684 46.8318C66.0068 47.0019 66.1196 47.2578 66.1196 47.5299C66.1196 47.7466 66.0126 47.9096 65.9317 48.0047C65.8457 48.1058 65.7393 48.1897 65.6363 48.2582C65.4284 48.3965 65.1589 48.5219 64.8722 48.6278C64.2999 48.8391 63.5677 49.0057 62.9185 49.0206C62.6053 49.0338 62.2861 49.005 62.0453 48.8629C61.9111 48.7836 61.775 48.6522 61.7158 48.455C61.6572 48.2598 61.6978 48.0787 61.76 47.9449C61.874 47.6994 62.1053 47.5076 62.3331 47.3647C62.578 47.2111 62.8909 47.0697 63.2574 46.9521Z" fill="#84CC16" stroke="#434A42"/>
<path d="M14.6529 48.8171C15.0394 48.3781 15.5592 47.9468 16.1094 47.6494C16.5408 47.4042 17.0399 47.2864 17.4538 47.2945C17.6579 47.2985 17.8856 47.3339 18.081 47.4387C18.2919 47.5518 18.5027 47.775 18.5027 48.112C18.5027 48.2469 18.4569 48.3555 18.422 48.4217C18.3846 48.4929 18.3384 48.5551 18.2948 48.6064C18.2077 48.7093 18.0962 48.8096 17.9781 48.9024C17.7393 49.0898 17.4218 49.2862 17.0763 49.4521C16.7966 49.5865 16.5063 49.7742 16.2721 49.9662C16.0195 50.1733 15.898 50.3318 15.8719 50.3926L15.872 50.3926L15.868 50.4014C15.7592 50.6425 15.6211 50.8501 15.4584 51.0068C15.3016 51.1579 15.0864 51.2942 14.8287 51.3108C14.5388 51.3296 14.2866 51.1901 14.1325 50.9597C13.9939 50.7526 13.9473 50.4968 13.9473 50.2465C13.9473 49.9822 14.0462 49.7221 14.1652 49.5007C14.2888 49.2709 14.4584 49.038 14.6529 48.8171Z" fill="#84CC16" stroke="#434A42"/>
<path d="M76.1605 49.2988C75.4602 49.2988 74.9612 49.2817 74.6335 49.2115C74.4702 49.1765 74.2787 49.1149 74.126 48.9774C73.9452 48.8146 73.8828 48.6063 73.8828 48.4177C73.8828 48.2291 73.9452 48.0208 74.126 47.8579C74.2787 47.7204 74.4702 47.6589 74.6335 47.6239C74.9612 47.5536 75.4602 47.5365 76.1605 47.5365C76.8608 47.5365 77.3598 47.5536 77.6875 47.6239C77.8508 47.6589 78.0423 47.7204 78.195 47.8579C78.3759 48.0208 78.4382 48.2291 78.4382 48.4177C78.4382 48.6063 78.3759 48.8146 78.195 48.9774C78.0423 49.1149 77.8508 49.1765 77.6875 49.2115C77.3598 49.2817 76.8608 49.2988 76.1605 49.2988Z" fill="#84CC16" stroke="#434A42"/>
<path d="M80.8325 48.0251L80.8324 48.025L80.8416 48.0205C81.3799 47.7578 81.8828 47.5861 82.286 47.5731C82.4877 47.5666 82.7333 47.5973 82.9395 47.7492C83.171 47.9197 83.2625 48.1738 83.2625 48.419C83.2625 48.5935 83.1998 48.741 83.136 48.848C83.0707 48.9577 82.9866 49.0548 82.9009 49.1382C82.7295 49.3051 82.5081 49.459 82.2773 49.5887C81.8285 49.8408 81.2331 50.0625 80.7308 50.0625C80.4912 50.0625 80.2141 50.02 80.0021 49.8472C79.8871 49.7533 79.7981 49.6254 79.7577 49.47C79.7184 49.3191 79.7332 49.1749 79.7692 49.0543C79.8376 48.8249 79.9963 48.6297 80.1645 48.4756C80.3408 48.314 80.5673 48.1614 80.8325 48.0251Z" fill="#84CC16" stroke="#434A42"/>
<path d="M57.8817 48.996L57.8817 48.996L57.8858 48.9943C58.418 48.7735 58.8968 48.631 59.2924 48.6354C59.4984 48.6377 59.7152 48.6798 59.9073 48.8026C60.1044 48.9286 60.2316 49.1114 60.3013 49.3152C60.3899 49.5615 60.2961 49.7756 60.2277 49.8863C60.1546 50.0045 60.0542 50.1016 59.9641 50.1764C59.7792 50.3299 59.5305 50.4764 59.274 50.6013C58.7744 50.8446 58.102 51.0742 57.5949 51.0742C57.349 51.0742 57.0479 51.0273 56.8339 50.8166C56.5708 50.5577 56.5902 50.2187 56.6899 49.9827C56.7825 49.7634 56.9568 49.5747 57.1468 49.4227C57.3444 49.2646 57.5932 49.1187 57.8817 48.996Z" fill="#84CC16" stroke="#434A42"/>
<path d="M44.5659 51.7459C44.4051 51.9068 44.1977 51.9754 44.034 52.0081C43.861 52.0427 43.672 52.0498 43.4863 52.0421C43.1136 52.0266 42.6863 51.948 42.2845 51.836C41.883 51.7241 41.4797 51.5714 41.1593 51.3939C41 51.3056 40.8443 51.2019 40.7177 51.0817C40.6028 50.9725 40.464 50.8046 40.421 50.5788C40.3969 50.4752 40.3632 50.3123 40.3875 50.152C40.4023 50.0538 40.4414 49.9349 40.5329 49.8278C40.6246 49.7204 40.7373 49.662 40.8367 49.6314C41.0082 49.5786 41.1943 49.5933 41.3308 49.6096C41.485 49.628 41.6747 49.6633 41.8956 49.7074C42.4536 49.814 43.2979 50.0505 43.8196 50.2699C43.9969 50.3422 44.1523 50.412 44.2804 50.4819C44.402 50.5482 44.5366 50.6345 44.6394 50.752C44.7565 50.8859 44.8501 51.085 44.8053 51.3241C44.7678 51.5243 44.6465 51.6652 44.5659 51.7459Z" fill="#84CC16" stroke="#434A42"/>
<path d="M49.6535 50.763L49.6535 50.763L49.6607 50.7624C50.8568 50.6742 51.5965 50.6271 52.036 50.6373C52.2428 50.6421 52.4573 50.6593 52.6309 50.7324C52.7291 50.7738 52.8443 50.8453 52.9303 50.9701C53.0185 51.0982 53.0418 51.2326 53.0418 51.3373C53.0418 51.6545 52.8644 51.8895 52.6747 52.0405C52.4892 52.1883 52.2513 52.2923 52.0018 52.3683C51.4981 52.5217 50.815 52.5996 50.0277 52.5996C49.4389 52.5996 48.9962 52.5825 48.6949 52.5142C48.5442 52.48 48.3648 52.42 48.2195 52.2902C48.0483 52.1371 47.9785 51.9375 47.9785 51.7439C47.9785 51.5549 48.0435 51.375 48.1747 51.2281C48.2941 51.0945 48.4456 51.0135 48.5836 50.96C48.8525 50.8559 49.22 50.8013 49.6535 50.763Z" fill="#84CC16" stroke="#434A42"/>
<path d="M9.21679 52.0024L9.21675 52.0023L9.22351 51.9977C9.40461 51.8748 9.56599 51.7711 9.70882 51.6939C9.84604 51.6198 10.0037 51.5491 10.1715 51.5256C10.3642 51.4986 10.5591 51.5358 10.73 51.6574C10.8678 51.7556 10.9583 51.8872 11.0196 51.9921C11.1289 52.1607 11.1125 52.3368 11.1027 52.4053C11.089 52.5002 11.0574 52.5875 11.0284 52.6555C10.9686 52.7955 10.8761 52.9522 10.7698 53.11C10.5539 53.4306 10.2362 53.8214 9.86439 54.2068C9.53454 54.549 9.21092 54.928 8.96304 55.2547C8.83891 55.4183 8.73785 55.5634 8.66561 55.6804C8.59708 55.7914 8.57327 55.8476 8.5683 55.8593C8.5674 55.8614 8.56712 55.8621 8.5673 55.8614L8.56265 55.88L8.55658 55.8982C8.40313 56.3588 8.03803 56.8203 7.49765 56.7854C6.89679 56.7466 6.66797 56.1645 6.66797 55.6893C6.66797 55.3946 6.80784 55.0548 6.95512 54.7649C7.11501 54.4501 7.33332 54.1013 7.57673 53.76C8.05561 53.0886 8.67861 52.3808 9.21679 52.0024Z" fill="#84CC16" stroke="#434A42"/>
</svg>
