<svg width="531" height="303" viewBox="0 0 531 303" fill="none" xmlns="http://www.w3.org/2000/svg">
<path d="M14.5597 204.713V186.602L94.4602 60.1818H107.599V88.2358H98.7216L38.3523 183.761V185.182H145.952V204.713H14.5597ZM100.142 242V199.209V190.775V60.1818H121.094V242H100.142Z" fill="#64A230"/>
<path d="M384.56 204.713V186.602L464.46 60.1818H477.599V88.2358H468.722L408.352 183.761V185.182H515.952V204.713H384.56ZM470.142 242V199.209V190.775V60.1818H491.094V242H470.142Z" fill="#64A230"/>
<path d="M350.206 145.432L344.301 159.767L336.031 189.675L321.688 213.764L309.184 226.493L288.362 235.544L267.54 239.377H264.406V238.799L264.402 239.377H261.268L240.446 235.544L219.624 226.493L207.115 213.764L192.776 189.675L184.506 159.767L178.602 145.432L224.268 84.8309L241.637 77.709L264.406 79.5003L287.17 77.709L304.539 84.8309L350.206 145.432Z" fill="#A3C636"/>
<path d="M239.258 157.242V174.736H221.76C212.1 174.736 204.266 166.902 204.266 157.242C204.266 147.578 212.1 139.748 221.76 139.748C231.424 139.748 239.258 147.578 239.258 157.242Z" fill="#64A230"/>
<path d="M311.768 208.598C311.768 217.131 307.395 226.23 301.089 229.903C299.911 230.589 298.763 231.327 297.692 232.173C286.742 240.823 265.613 238.277 265.009 238.199C264.405 238.277 243.276 240.823 232.326 232.173C231.255 231.327 230.107 230.589 228.929 229.903C222.622 226.23 218.25 217.131 218.25 208.598C218.25 201.195 221.543 194.677 226.533 190.883L251.486 170.208L251.494 170.204C254.904 166.673 259.683 164.463 264.97 164.42H265.048C270.335 164.463 275.113 166.673 278.523 170.204L278.532 170.208L303.485 190.883C308.474 194.677 311.768 201.195 311.768 208.598Z" fill="#64A230"/>
<path d="M182.797 156.31C182.797 156.31 237.959 136.109 240.446 79.5481L236.971 73.3066H224.807L169.722 105.606L167.012 140.672L172.17 153.837L182.797 156.31Z" fill="#64A230"/>
<path d="M347.198 156.31C347.198 156.31 292.035 136.109 289.549 79.5481L293.023 73.3066H305.187L360.272 105.606L362.983 140.672L357.825 153.837L347.198 156.31Z" fill="#64A230"/>
<path d="M273.937 214.995C272.759 218.819 269.724 221.996 265.581 223.174C261.437 224.353 257.185 223.252 254.172 220.611C254.16 220.606 254.147 220.602 254.151 220.589C249.342 217.088 248.061 209.535 248.061 209.535L250.991 206.526L257.064 200.289L258.528 198.787L258.623 198.684L258.765 198.718L260.798 199.227L269.236 201.334L273.315 202.357C273.311 202.357 276.212 209.483 273.937 214.995Z" fill="#EB6465"/>
<path d="M260.149 197.954L264.344 212.712C264.599 213.601 264.081 214.525 263.196 214.775C262.311 215.025 261.383 214.512 261.133 213.627L256.938 198.869L260.149 197.954Z" fill="#C1313F"/>
<path d="M285.948 208.754C288.02 209.945 288.793 212.479 287.683 214.412C286.57 216.346 283.989 216.95 281.921 215.759L264.992 201.04L246.816 215.669C244.766 216.851 242.198 216.243 241.084 214.305C239.971 212.371 240.734 209.846 242.789 208.667L260.754 194.156V181.069H248.046C248.599 172.626 255.889 165.944 264.794 165.944C273.698 165.944 280.989 172.626 281.541 181.069H268.834V193.927L285.948 208.754Z" fill="#1D1D1B"/>
<path d="M290.541 157.242V174.736H308.039C317.699 174.736 325.534 166.902 325.534 157.242C325.534 147.578 317.699 139.748 308.039 139.748C298.375 139.748 290.541 147.578 290.541 157.242Z" fill="#64A230"/>
<path d="M233.465 160.898C231.134 167.523 223.874 171.007 217.249 168.676C213.312 167.29 210.489 164.169 209.328 160.475L232.023 149.589C234.182 152.805 234.846 156.961 233.465 160.898Z" fill="#1D1D1B"/>
<path d="M299.266 228.687C299.261 228.691 299.256 228.696 299.252 228.7" stroke="#1D1D1B" stroke-width="0.75" stroke-miterlimit="10"/>
<path d="M225.161 162.702C227.04 162.702 228.562 161.179 228.562 159.301C228.562 157.422 227.04 155.899 225.161 155.899C223.283 155.899 221.76 157.422 221.76 159.301C221.76 161.179 223.283 162.702 225.161 162.702Z" fill="white"/>
<path d="M217.431 162.703C218.304 162.703 219.011 161.995 219.011 161.123C219.011 160.25 218.304 159.543 217.431 159.543C216.559 159.543 215.852 160.25 215.852 161.123C215.852 161.995 216.559 162.703 217.431 162.703Z" fill="white"/>
<path d="M296.333 160.898C298.663 167.523 305.923 171.007 312.549 168.676C316.486 167.29 319.308 164.169 320.47 160.475L297.774 149.589C295.612 152.805 294.947 156.961 296.333 160.898Z" fill="#1D1D1B"/>
<path d="M304.638 162.702C306.516 162.702 308.039 161.179 308.039 159.301C308.039 157.422 306.516 155.899 304.638 155.899C302.759 155.899 301.236 157.422 301.236 159.301C301.236 161.179 302.759 162.702 304.638 162.702Z" fill="white"/>
<path d="M312.365 162.703C313.237 162.703 313.945 161.995 313.945 161.123C313.945 160.25 313.237 159.543 312.365 159.543C311.492 159.543 310.785 160.25 310.785 161.123C310.785 161.995 311.492 162.703 312.365 162.703Z" fill="white"/>
<path d="M236.28 129.764C236.638 128.478 236.621 127.218 235.913 126.147C235.192 125.055 233.992 125.077 233.017 125.31C230.988 125.798 229.244 128.949 227.941 131.137C225.981 134.43 221.238 141.151 210.753 140.378C209.342 140.275 207.33 140.685 207.041 143.011C206.916 144.026 207.171 145.204 207.714 145.92C208.086 146.408 208.591 146.589 209.087 146.663C212.32 147.142 215.609 147.241 218.807 146.356C219.11 146.274 219.412 146.184 219.714 146.089C221.6 145.433 223.422 144.466 225.152 143.244C227.565 141.539 229.646 139.312 231.7 136.912C232.849 135.579 235.486 132.609 236.28 129.764Z" fill="#33672B"/>
<path d="M293.519 129.393C293.16 128.107 293.178 126.847 293.886 125.776C294.606 124.684 295.806 124.706 296.782 124.939C298.81 125.427 300.554 128.578 301.858 130.766C303.817 134.059 308.561 140.78 319.045 140.007C320.457 139.904 322.468 140.314 322.758 142.64C322.883 143.654 322.628 144.833 322.084 145.549C321.713 146.037 321.208 146.218 320.712 146.292C317.479 146.771 314.19 146.87 310.991 145.985C310.689 145.903 310.387 145.813 310.085 145.718C308.199 145.062 306.377 144.095 304.646 142.873C302.233 141.168 300.153 138.941 298.098 136.541C296.946 135.203 294.309 132.233 293.519 129.393Z" fill="#33672B"/>
</svg>
