<svg width="35" height="35" viewBox="0 0 35 35" fill="none" xmlns="http://www.w3.org/2000/svg">
<circle cx="17.5" cy="17.5" r="17.5" fill="#F9FAFB"/>
<path d="M18 22.6875C20.5888 22.6875 22.6875 20.5888 22.6875 18C22.6875 15.4112 20.5888 13.3125 18 13.3125C15.4112 13.3125 13.3125 15.4112 13.3125 18C13.3125 20.5888 15.4112 22.6875 18 22.6875Z" stroke="#84CC16" stroke-width="1.5" stroke-linecap="round" stroke-linejoin="round"/>
<path d="M23.1562 7.21875H12.8438C9.73715 7.21875 7.21875 9.73715 7.21875 12.8438V23.1562C7.21875 26.2629 9.73715 28.7812 12.8438 28.7812H23.1562C26.2629 28.7812 28.7812 26.2629 28.7812 23.1562V12.8438C28.7812 9.73715 26.2629 7.21875 23.1562 7.21875Z" stroke="#84CC16" stroke-width="1.5" stroke-linecap="round" stroke-linejoin="round"/>
<path d="M24.0938 13.0781C24.741 13.0781 25.2656 12.5535 25.2656 11.9062C25.2656 11.259 24.741 10.7344 24.0938 10.7344C23.4465 10.7344 22.9219 11.259 22.9219 11.9062C22.9219 12.5535 23.4465 13.0781 24.0938 13.0781Z" fill="#84CC16"/>
</svg>
