<svg width="35" height="35" viewBox="0 0 35 35" fill="none" xmlns="http://www.w3.org/2000/svg">
<circle cx="17.5" cy="17.5" r="17.5" fill="#F9FAFB"/>
<path d="M18.0001 13.3129C18.0001 10.7348 20.1681 8.59027 22.7462 8.62543C23.6491 8.63585 24.5298 8.90681 25.2823 9.40575C26.0349 9.90468 26.6273 10.6104 26.9884 11.4379H31.1251L27.34 15.2231C27.0957 19.0253 25.4126 22.5918 22.6328 25.1975C19.853 27.8031 16.1852 29.2523 12.3751 29.2504C8.62514 29.2504 7.68764 27.8442 7.68764 27.8442C7.68764 27.8442 11.4376 26.4379 13.3126 23.6254C13.3126 23.6254 5.81264 19.8754 7.68764 9.56293C7.68764 9.56293 12.3751 14.2504 18.0001 15.1879V13.3129Z" stroke="#84CC16" stroke-width="2" stroke-linecap="round" stroke-linejoin="round"/>
</svg>
